<svg width="125" height="162" viewBox="0 0 125 162" fill="none" xmlns="http://www.w3.org/2000/svg">
<g id="Asset/COBE/Logo_red" clip-path="url(#clip0_234_6)" filter="url(#filter0_d_234_6)">
<g id="Group">
<path id="Vector" d="M90.9238 59.3874C90.9238 67.9718 90.6954 76.5561 90.9619 85.1405C91.7235 107.857 77.2537 119.665 62.0984 125.288C59.5852 126.225 57.3386 126.225 54.8254 125.251C43.6684 121.015 34.4915 114.53 29.3509 103.471C27.2566 99.0104 26.1523 94.2871 26.1142 89.3764C26 69.0589 26.0762 48.7038 26 28.3488C26 26.9618 26.7235 26.8869 27.6755 26.6994C35.7481 25.125 43.935 24.3003 52.1599 24.0754C64.4974 23.738 76.7967 24.3003 88.9438 26.587C90.3907 26.8494 90.9619 27.2617 90.9619 28.9111C90.8477 39.1074 90.9238 49.2287 90.9238 59.3874Z" fill="#FC4402"/>
<path id="Vector_2" d="M53.3026 72.2452C53.4169 77.6058 53.1123 82.9663 53.6073 88.2893C53.8357 90.9509 55.1304 92.9751 57.3009 94.5121C58.1386 95.1118 58.824 95.1493 59.6998 94.5495C64.2693 91.5881 63.4696 87.3147 63.6219 82.5914C63.6219 81.7667 63.7742 81.2419 64.7643 81.017C67.1632 80.5672 69.5622 80.0049 71.9611 79.4426C72.6846 79.2552 72.9892 79.4051 72.9892 80.1923C73.1796 90.8009 73.0654 96.8737 63.3554 103.209C59.776 105.683 56.6916 105.421 53.1884 103.134C47.2101 99.2728 44.3923 93.7623 44.278 86.9398C44.0876 76.2937 43.5165 65.6477 44.5827 55.0391C45.8393 42.6311 58.4432 39.6322 66.4778 44.4305C70.933 47.092 72.6084 51.3279 72.9131 56.2386C73.2558 61.5992 73.4081 61.5242 68.1913 62.9112C66.9348 63.2485 64.8404 64.0732 63.8885 63.286C63.165 62.6863 63.6219 60.6995 63.5838 59.35C63.5458 58.3004 63.5458 57.2508 63.4696 56.1637C63.2792 52.9023 61.4514 50.8406 58.5956 50.8031C55.7016 50.7281 53.8357 52.6025 53.5311 55.9387C53.0742 61.4117 53.4169 66.8097 53.3026 72.2452Z" fill="#F2F7FF"/>
</g>
</g>
<defs>
<filter id="filter0_d_234_6" x="0" y="0" width="125" height="162" filterUnits="userSpaceOnUse" color-interpolation-filters="sRGB">
<feFlood flood-opacity="0" result="BackgroundImageFix"/>
<feColorMatrix in="SourceAlpha" type="matrix" values="0 0 0 0 0 0 0 0 0 0 0 0 0 0 0 0 0 0 127 0" result="hardAlpha"/>
<feOffset dx="4" dy="6"/>
<feGaussianBlur stdDeviation="15"/>
<feColorMatrix type="matrix" values="0 0 0 0 0 0 0 0 0 0 0 0 0 0 0 0 0 0 0.2 0"/>
<feBlend mode="normal" in2="BackgroundImageFix" result="effect1_dropShadow_234_6"/>
<feBlend mode="normal" in="SourceGraphic" in2="effect1_dropShadow_234_6" result="shape"/>
</filter>
<clipPath id="clip0_234_6">
<rect width="65" height="102" fill="white" transform="translate(26 24)"/>
</clipPath>
</defs>
</svg>
